<svg xmlns="http://www.w3.org/2000/svg" fill="currentColor" viewBox="0 0 1962 582"><path d="M389.5 405.5c30.6 24.4 34.7 65.2 22 97-14 35.4-41.2 55.4-76.7 65.7a226 226 0 0 1-62.3 7.8H100c-11.1.1-16-4.8-16-16.1 0-91-.3-182 .1-273 .1-19-6.7-32.7-23.5-41.6q-8.2-4.7-5.8-12.9 2-7.5 11.5-7.5 111.2 0 222.5.2c21.9 0 43.5 3 64 11.7 25 10.7 41.6 28.8 46 56.1a73 73 0 0 1-44.7 81c-8.4 3.7-17.5 6.2-25.8 9a118 118 0 0 1 61.2 22.6m-137.3 109V408.1c0-7.3-5.2-12-12.6-11.7-6.4.1-9.2 3.6-9.2 11.4v129.4q0 11.8 10.6 11.5c7.2-.1 11.1-4.3 11.2-11.7zm-21.5-146c2.8 3.6 9.4 5.2 15 3.3q6.7-2.4 6.5-10V264q0-2-.3-4c-1.3-5.6-6-8.7-12.4-8.2-5.6.5-9 4-9 10-.1 35.3 0 70.5.2 106.6M1389 209.8h67c10.2 0 15 4.6 15 14.9V357c7.6-7.8 14.4-16 22.4-22.8 30.7-25.8 78.6-31.6 112.2-13.7 26.1 14 40.3 35.9 40.2 65.9a61.6 61.6 0 0 1-54 60.5c-19 2.9-37.2 1.6-53.8-9.3q-9.1-5.9-13.9-15.4c-1.6-3.5-3.6-6.1-8-5-3.9 1.1-6.2 5-5.2 9.6a34 34 0 0 0 12.7 19.2 72 72 0 0 0 35.2 15.7 95 95 0 0 0 74.7-17.4c3.9-3 7.3-6.8 10.6-10.5 4-4.6 9.3-6.6 14.6-5 4.4 1.4 7 4.4 7 8.8.6 26.5-1 52.7-10.4 77.8-7 18.9-18 35-35.3 46a84.5 84.5 0 0 1-122.1-37.6 175 175 0 0 1-12.6-86.1q2.1-27 13.5-51.4a78 78 0 0 1 26.5-33.2 50 50 0 0 1 27.2-8.7c4 0 7.3-1.2 7.3-5.6s-3.1-6.5-7.2-6.9a50 50 0 0 0-28.4 6.2 83 83 0 0 0-36.5 38.5 159 159 0 0 0-16.7 72.3q.3 51.6.1 103c0 12.5-4.7 17.2-17.3 17.2h-95c-13.2 0-17.3-4-17.3-17.1l.2-170.5q.2-57.5 0-115a39 39 0 0 0-18.3-35c-3-2-6.2-5.1-7.3-8.4-2.3-6.9 3.4-13.2 11.4-13.2zm-110.6 337.7a152 152 0 0 1-78.2 29.6 269 269 0 0 1-97.3-5c-40.6-10.8-72.6-33.3-86.6-74.2-16.7-48.7-12.2-95.7 20.5-137.4 18-23 43.1-35.8 71-42.9a227 227 0 0 1 119.5.6c27.8 7.8 52.2 21.6 70.2 45a131 131 0 0 1 26 72.3c2.1 30.7-3.3 60-21 85.6-6.7 9.6-15.8 17.5-24 26.4m-110.8 1.2c7.7-2.5 9.8-6 9.8-16.3l.1-178q0-2.5-.3-5c-1-6-4.6-9.8-9.7-10.5-6.7-.8-13 1.8-15.1 7.3a32 32 0 0 0-2.2 11.1v176.5c0 11.3 5.3 16 17.4 14.9m-244 14.1c-23.4 10.8-48 15-73.1 16-23 .8-46-.7-68.6-5.5a121 121 0 0 1-98.7-115.4 146 146 0 0 1 14.1-74.8 118 118 0 0 1 68.5-59.4c50-18 100.3-19.3 149.8 1.2 50.6 21 75.7 60.3 78.3 114.5a134 134 0 0 1-21 81.8c-12.2 18.6-29 32-49.3 41.6m-74.2-24.2q.4-3 .4-6v-58.9l-.1-121.4q-.2-12.3-10.4-13.5c-7.8-.8-14 3.1-15.8 10.7q-1 4.8-.8 9.9l-.1 103.9q-.1 36.4.1 72.9c0 7.8 4 11.9 10.8 12.7 8.2 1 13.3-2 16-10.3m878.1-211a210 210 0 0 1 100-16c14.7 1 29.4 3.6 43.8 6.7a76 76 0 0 1 32.2 16.4c19 15.9 23 43 8.7 60.7-8.3 10.2-20 14.1-32.4 16.2-17.9 2.9-35.5 1.9-52.2-6.1-15.8-7.6-24.5-23.5-21.1-38.6a28 28 0 0 1 26.2-22.7c4-.3 6.9-1.5 6.9-5.5 0-4.3-2.8-6.7-7-7-14-.8-24.7 5.7-32.6 16.3-17 23-10.4 50.9 15 64 17 8.8 35.6 12 53.6 17.2 12.7 3.7 25.6 7.8 37.2 14 21.9 11.6 29.5 31.6 27.4 55.5-2.6 30.4-21.6 48.3-48 59.7a202 202 0 0 1-76.6 14.4c-32 .7-63.7-2.4-93.7-14.5-12.5-5-24.1-11.3-32.5-22.4-16.8-22-10-50.5 15.5-61 26.1-10.6 52.2-9.4 75.6 7.3a31 31 0 0 1-3.7 53.4q-4.7 1.9-9.6 2.6-8 1-7.5 7.4.6 6.3 8.7 6a44 44 0 0 0 38.5-31c5.5-18 0-36-14.5-47-9.7-7.3-21.2-10.8-32.6-14.5-12.8-4.1-26-7.6-38-13.3-45.3-21.6-44.7-76.3-12-102.6 7.4-6 16.2-10.3 24.7-15.6m-1315.5-4.9c1.6-4.4 4.3-5.8 8.6-5.8q21.4.2 43 0 16 .1 30.5 6.7c8.4 3.6 14.4 10 19 18.2 10-10 20.8-18.3 33.7-23.2 30.7-11.6 61.4-12.8 91 2.6 30 15.6 43.5 54 29.8 83.2-10 21.2-28.2 31.3-50.6 34.4a91 91 0 0 1-45.7-4.8c-18.6-7.2-31.7-19.6-34.8-40.2-4-26.2 15-48.9 41.4-49.7q8.5-.2 8.2-5.6c-.1-3.8-3.5-6.4-8.6-6.8-27.3-1.6-53 21-55.8 49.3-2.8 27.4 9.2 48.7 35 62q4 2.2 8.2 3.9a19.5 19.5 0 0 1 12.8 19.1v95c0 7.8-5.8 13.7-13.6 13.7q-56 .3-112 0c-7.5 0-12.1-5.1-12.4-12.9q-.2-10.2 0-20.5V375.4c0-10.1-1-20.2-7.9-28.2-3.5-4.1-7.8-7.9-12.5-10.4-5.9-3.2-8.4-7.2-7.3-14"/></svg>
