<svg xmlns="http://www.w3.org/2000/svg" width="1000" height="181.354" fill="currentColor" viewBox="0 0 1000 181.354"><g style="fill-opacity:1;fill-rule:evenodd;stroke:none;stroke-width:1"><path d="M43.253 8.622c0-.196.133-.301.3-.301.285 0 .713.301.955.904-.087 0-.217.026-.305.026-.516 0-.95-.246-.95-.629M12 8.622c0-.196.128-.301.303-.301.277 0 .687.301.926.904-.798 0-1.229-.173-1.229-.603m6.028-3.113c0-3.222.628-3.717.823-3.717.346 0 .387.216.387 1.452 0 1.27-.54 2.931-1.21 3.844zm21.943 3.178c-.372.518-.674 1.254-.674 2.202 0 1.816 1.036 3.549 3.048 3.549 1.946 0 3.308-1.537 3.308-3.68 0-.623-.023-.709-.064-.967.452-.197.842-.498 1.146-.739.258-.195.451-.303.606-.303.194 0 .279.151.279.432v4.24c0 .691.218 1.017.756 1.017.496 0 .845-.348 1.038-.758.715-1.492 1.75-3.48 2.203-4.235.109-.174.197-.306.259-.306.087 0 .131.066.131.345v3.376c0 .95.434 1.578 1.381 1.578.997 0 1.491-.955 2.362-2.424a.5.5 0 0 0 .06-.214c0-.194-.169-.305-.343-.305-.196 0-.304.196-.951.908-.131.135-.258.322-.498.322-.086 0-.152-.104-.152-.236V8.705c0-1.017-.455-1.427-1.038-1.427-.474 0-.865.195-1.275.8-.736 1.084-1.492 2.62-1.901 3.394-.046.09-.108.22-.15.22-.046 0-.065-.067-.065-.22V8.705c0-.798-.216-1.427-1.06-1.427-.888 0-1.34.607-1.99 1.06-.41.306-.776.52-1.056.649-.435-1.102-1.234-1.661-1.903-1.644-.673.023-1.148.436-1.148 1.128 0 .71.435 1.204 1.016 1.424.322.13.626.154 1.06.154.13 0 .26 0 .343-.024.046.215.025.522.025.759 0 1.06-.627 2.117-1.792 2.117-1.214 0-1.924-1.168-1.924-2.507 0-1.017.3-1.858.794-2.44.2-.218.348-.35.348-.55 0-.1-.148-.126-.28-.126-.823 0-1.728.37-2.353.692-.826.433-1.796 1.149-2.597 1.862-.389-.867-.864-1.624-1.103-2.21-.086-.237-.149-.513-.322-.513-.154 0-.22.151-.326.45-.388 1.146-2.464 4.5-2.918 4.953-.043.062-.106.13-.127.13-.046 0-.071-.02-.071-.153V8.705c0-1.017-.41-1.427-.968-1.427-.478 0-.887.195-1.275.8-.713 1.084-1.581 2.662-1.99 3.439-.066.133-.132.174-.154.174s-.039-.085-.039-.219V8.705c0-1.017-.412-1.427-.975-1.427-.477 0-.928.178-1.298.8-.906 1.538-2.418 3.894-2.7 4.28a.36.36 0 0 1-.13.131c-.042 0-.067-.042-.067-.15V8.706c0-1.017-.41-1.427-.969-1.427-.78 0-1.21.717-1.493 1.169a37 37 0 0 0-1.317 2.251c-.282.521-.521.993-.609.993-.04 0-.04-.196-.04-.562V8.233c1.359-1.516 2.203-3.374 2.203-5.406 0-1.17-.517-1.815-1.315-1.815-1.495 0-2.637 2.336-2.637 5.1v2.249c-.693.433-1.343.644-2.144.8-.409-1.207-1.275-1.835-1.964-1.818-.668.023-1.146.436-1.146 1.128 0 1.145 1.124 1.62 2.116 1.62h.282c.042.218.042.456.042.693 0 1.06-.627 2.117-1.79 2.117-1.21 0-1.926-1.168-1.926-2.507 0-1.017.3-1.858.798-2.44.196-.218.348-.413.348-.55 0-.1-.152-.126-.283-.126-.821 0-2.635 1.107-4.798 3.269-.191-1.73-.41-3.418-.41-5.061 0-1.837.364-3.397.45-3.847a4 4 0 0 0 .071-.582c0-.174-.092-.263-.325-.263-1.753 0-5.6 2.79-5.6 6.963 0 2.958 1.082 4.387 2.96 6.224C1.82 15.819.907 18 .907 19.947c0 1.403.327 2.466 1.362 2.466 2.162 0 3.782-4.494 3.782-7.826q.001-1.491-.125-2.981c.797-.848 2.03-1.99 2.33-2.099a5.2 5.2 0 0 0-.215 1.382c0 1.816 1.04 3.549 3.048 3.549 1.883 0 3.307-1.537 3.307-3.68 0-.277-.022-.518-.041-.776.688-.13 1.322-.307 1.925-.668v4.344c0 .56.386.78.754.78.5 0 .759-.348 1.123-1.144.306-.651 1.124-2.141 1.621-3.03.392-.695.608-1.145.782-1.145.04 0 .087.106.087.365v3.698c0 .995.519 1.256.968 1.256.432 0 .715-.238.996-.628 1.125-1.601 2.316-3.501 2.788-4.326.087-.147.195-.26.282-.26.084 0 .128.047.128.325v3.872c0 .691.216 1.017.759 1.017.494 0 .818-.348 1.01-.758.72-1.492 1.775-3.46 2.232-4.235.105-.174.214-.326.278-.326.09 0 .11.106.11.388v3.675c0 .995.52 1.256.976 1.256.6 0 .993-.435 1.382-.93.709-.934 1.748-2.591 2.375-3.656.218.348.453.76.651 1.212-.52.627-1.04 1.339-1.04 2.094 0 .801.563 1.28 1.147 1.28.992 0 1.899-.955 1.899-2.27 0-.518-.149-1.06-.342-1.577.882-.867 1.943-1.71 2.725-1.904M4.365 13.399c.175 1.145.326 2.271.326 3.156 0 2.072-.69 4.494-1.88 4.474-.458 0-.845-.46-.864-1.255-.043-2.591 1.188-4.797 2.418-6.375m31.56-1.473c.13.372.197.672.197.975 0 .346-.13.693-.37.693-.17 0-.343-.195-.343-.498 0-.325.28-.844.516-1.17M5.145 1.616c0 .132-.303.735-.69 1.818a13.6 13.6 0 0 0-.803 4.645c0 1.146.284 2.661.523 4.195l-.692.933c-1.104-1.344-1.795-2.855-1.795-5.45 0-3.674 2.226-6.223 3.37-6.223.068 0 .087.02.087.082M106.65 8.622c0-.196.126-.301.3-.301.28 0 .713.301.95.904-.085 0-.214.026-.305.026-.514 0-.945-.246-.945-.629m-31.26 0c0-.196.133-.301.304-.301.28 0 .696.301.929.904-.8 0-1.232-.173-1.232-.603m6.033-3.113c0-3.222.623-3.717.82-3.717.345 0 .39.216.39 1.452 0 1.27-.543 2.931-1.21 3.844zm-13.66 7.89c.168 1.145.325 2.271.325 3.156 0 2.072-.69 4.494-1.882 4.474-.453 0-.843-.46-.864-1.255-.045-2.591 1.19-4.797 2.421-6.375m31.56-1.473c.13.372.193.672.193.975 0 .346-.13.693-.368.693-.17 0-.349-.195-.349-.498 0-.325.284-.844.523-1.17M68.536 1.616c0 .132-.3.735-.691 1.818-.408 1.122-.8 2.72-.8 4.645 0 1.146.289 2.661.525 4.195l-.694.933c-1.1-1.344-1.796-2.855-1.796-5.45 0-3.674 2.23-6.223 3.374-6.223.063 0 .082.02.082.082m-3.604 10.809c.386.519.863 1.015 1.425 1.556-1.147 1.838-2.053 4.02-2.053 5.966 0 1.403.326 2.466 1.364 2.466 2.16 0 3.779-4.494 3.779-7.826q0-1.491-.129-2.981c.801-.848 2.03-1.99 2.336-2.099-.13.455-.22.932-.22 1.382 0 1.816 1.038 3.549 3.05 3.549 1.88 0 3.306-1.537 3.306-3.68 0-.277-.02-.518-.044-.776.693-.13 1.324-.307 1.926-.668v4.344c0 .56.387.78.751.78.504 0 .763-.348 1.129-1.144.301-.651 1.124-2.141 1.623-3.03.387-.695.604-1.145.78-1.145.041 0 .082.106.082.365v3.698c0 .995.517 1.256.972 1.256.434 0 .712-.238.999-.628 1.12-1.601 2.31-3.501 2.785-4.326.087-.147.196-.26.28-.26s.132.047.132.325v3.872c0 .691.214 1.017.753 1.017.498 0 .822-.348 1.018-.758a74 74 0 0 1 2.225-4.235c.11-.174.217-.326.285-.326.084 0 .108.106.108.388v3.675c0 .995.514 1.256.967 1.256.61 0 1-.435 1.385-.93.713-.934 1.753-2.591 2.38-3.656.213.348.454.76.65 1.212-.524.627-1.037 1.339-1.037 2.094 0 .801.555 1.28 1.143 1.28.993 0 1.9-.955 1.9-2.27 0-.518-.15-1.06-.345-1.577.885-.867 1.945-1.71 2.723-1.904-.367.518-.67 1.254-.67 2.202 0 1.816 1.039 3.549 3.05 3.549 1.945 0 3.303-1.537 3.303-3.68 0-.623-.02-.709-.06-.967.449-.197.84-.498 1.146-.739.254-.195.453-.303.601-.303.196 0 .287.151.287.432v4.24c0 .691.213 1.017.753 1.017.496 0 .844-.348 1.04-.758.708-1.492 1.747-3.48 2.2-4.235.108-.174.196-.306.261-.306.088 0 .13.066.13.345v3.376c0 .95.429 1.578 1.382 1.578.998 0 1.494-.955 2.36-2.424a.5.5 0 0 0 .061-.214c0-.194-.173-.305-.345-.305-.193 0-.303.196-.95.908-.128.135-.26.322-.497.322-.089 0-.15-.104-.15-.236V8.705c0-1.017-.46-1.427-1.043-1.427-.473 0-.86.195-1.272.8-.737 1.084-1.491 2.62-1.899 3.394-.047.09-.11.22-.155.22-.047 0-.063-.067-.063-.22V8.705c0-.798-.216-1.427-1.06-1.427-.888 0-1.34.607-1.987 1.06-.415.306-.78.52-1.063.649-.429-1.102-1.231-1.661-1.898-1.644-.674.023-1.145.436-1.145 1.128 0 .71.432 1.204 1.01 1.424.326.13.628.154 1.066.154.127 0 .252 0 .344-.024.042.215.02.522.02.759 0 1.06-.628 2.117-1.797 2.117-1.21 0-1.92-1.168-1.92-2.507 0-1.017.3-1.858.796-2.44.197-.218.35-.35.35-.55 0-.1-.153-.126-.283-.126-.817 0-1.728.37-2.355.692-.823.433-1.795 1.149-2.592 1.862-.39-.867-.863-1.624-1.104-2.21-.09-.237-.148-.513-.328-.513-.15 0-.215.151-.322.45-.39 1.146-2.463 4.5-2.917 4.953-.044.062-.108.13-.131.13-.04 0-.064-.02-.064-.153V8.705c0-1.017-.408-1.427-.975-1.427-.477 0-.881.195-1.274.8-.715 1.084-1.577 2.662-1.988 3.439-.064.133-.127.174-.148.174-.024 0-.047-.085-.047-.219V8.705c0-1.017-.407-1.427-.97-1.427-.477 0-.934.178-1.298.8-.91 1.538-2.421 3.894-2.704 4.28a.3.3 0 0 1-.13.131c-.039 0-.064-.042-.064-.15V8.706c0-1.017-.41-1.427-.974-1.427-.78 0-1.209.717-1.492 1.169a40 40 0 0 0-1.317 2.251c-.279.521-.517.993-.604.993-.043 0-.043-.196-.043-.562V8.233c1.363-1.516 2.203-3.374 2.203-5.406 0-1.17-.517-1.815-1.32-1.815-1.489 0-2.633 2.336-2.633 5.1v2.249c-.694.433-1.343.644-2.144.8-.407-1.207-1.273-1.835-1.96-1.818-.675.023-1.149.436-1.149 1.128 0 1.145 1.12 1.62 2.118 1.62h.282c.04.218.04.456.04.693 0 1.06-.624 2.117-1.793 2.117-1.21 0-1.92-1.168-1.92-2.507 0-1.017.301-1.858.795-2.44.194-.218.346-.413.346-.55 0-.1-.152-.126-.28-.126-.823 0-2.637 1.107-4.8 3.269-.19-1.73-.41-3.418-.41-5.061 0-1.837.368-3.397.454-3.847.043-.279.067-.454.067-.582 0-.174-.088-.263-.322-.263-1.751 0-5.6 2.79-5.6 6.963 0 1.705.368 2.919 1.017 3.976-.242-.042-.432-.042-.61-.042-.688 0-1.34.172-1.743.26v-.434c0-.926-.22-2.203-.61-2.637a.25.25 0 0 0-.17-.063c-.178 0-.391.083-.628.214-.262.13-.521.262-.521.346 0 .041 0 .085.065.192.152.222.564.65.713 1.67-.737-.737-1.576-1.063-2.674-1.063-1.3 0-1.69.582-1.69 1.169 0 1.124 1.49 1.685 3.374 1.685.345 0 .733-.065 1.12-.153 0 .347.044.653.044.91 0 .369.063.65.303.65.367 0 .584-.737.626-1.794.67-.174 1.363-.324 1.948-.324.28 0 .63.04.972.106m-4.258-.216c-.364.043-.585.043-.97.043-.846 0-1.47-.326-1.47-.797 0-.302.15-.478.582-.478.693 0 1.252.478 1.858 1.232" style="fill-opacity:1" transform="translate(-.002 -6.664)scale(8.38892)"/></g></svg>
